<svg width="181" height="33" viewBox="0 0 181 33" fill="none" xmlns="http://www.w3.org/2000/svg">
<g clip-path="url(#clip0_1229_53340)">
<path d="M31.6992 32.0912V2.71094H50.0968V6.64057H36.2731V15.9454H48.933V19.7934H36.2731V32.0912H31.6992Z" fill="black"/>
<path d="M53.1787 5.01315C53.1787 3.60836 54.3221 2.48828 55.7309 2.48828C57.1402 2.48828 58.2835 3.60836 58.2835 5.01315C58.2835 6.39748 57.1402 7.53758 55.7309 7.53758C54.3221 7.53758 53.1787 6.39748 53.1787 5.01315ZM53.5257 10.6731H57.9361V32.0924H53.5257V10.6731Z" fill="black"/>
<path d="M68.8367 5.60156V10.6713H72.9202V14.1532H68.8367V25.9621C68.8367 27.815 69.6531 28.6495 71.4503 28.6495C71.8993 28.6495 72.6142 28.6091 72.8997 28.5478V32.0293C72.4098 32.1518 71.4298 32.2332 70.4496 32.2332C66.1002 32.2332 64.4053 30.5841 64.4053 26.4507V14.1532H61.2812V10.6713H64.4053V5.60156H68.8367Z" fill="black"/>
<path d="M76.6201 10.675H80.8265V14.2587H80.9285C82.0924 11.8155 84.3795 10.3086 87.6876 10.3086C92.4245 10.3086 95.1406 13.322 95.1406 18.2287V32.0943H90.7093V19.0841C90.7093 15.8673 89.1984 14.0957 86.1354 14.0957C83.0317 14.0957 81.0309 16.2945 81.0309 19.6135V32.0943H76.6201V10.675Z" fill="black"/>
<path d="M117.39 25.7998C116.778 29.709 113.061 32.4985 108.14 32.4985C101.831 32.4985 98.0127 28.2433 98.0127 21.4834C98.0127 14.7646 101.892 10.2852 107.957 10.2852C113.919 10.2852 117.635 14.4794 117.635 20.9744V22.4813H102.464V22.746C102.464 26.4718 104.71 28.9353 108.242 28.9353C110.754 28.9353 112.612 27.6731 113.204 25.7998H117.39ZM102.484 19.4066H113.225C113.123 16.1289 111.04 13.8279 107.957 13.8279C104.873 13.8279 102.709 16.1694 102.484 19.4066Z" fill="black"/>
<path d="M128.908 10.2852C133.911 10.2852 137.158 13.0543 137.301 17.0043H133.155C132.91 14.9276 131.379 13.6245 128.908 13.6245C126.519 13.6245 124.926 14.785 124.926 16.4953C124.926 17.8389 125.907 18.7551 128.234 19.2845L131.726 20.0786C136.116 21.0965 137.791 22.8068 137.791 25.9015C137.791 29.8107 134.135 32.4985 129.072 32.4985C123.701 32.4985 120.475 29.872 120.066 25.7998H124.436C124.845 28.0395 126.376 29.1392 129.072 29.1392C131.726 29.1392 133.36 28.0395 133.36 26.2888C133.36 24.904 132.563 24.0895 130.215 23.5601L126.723 22.746C122.639 21.8093 120.618 19.8547 120.618 16.7396C120.618 12.9117 123.967 10.2852 128.908 10.2852Z" fill="black"/>
<path d="M148.854 10.2852C153.857 10.2852 157.104 13.0543 157.247 17.0043H153.101C152.856 14.9276 151.325 13.6245 148.854 13.6245C146.465 13.6245 144.873 14.785 144.873 16.4953C144.873 17.8389 145.853 18.7551 148.181 19.2845L151.672 20.0786C156.063 21.0965 157.737 22.8068 157.737 25.9015C157.737 29.8107 154.082 32.4985 149.018 32.4985C143.648 32.4985 140.421 29.872 140.013 25.7998H144.383C144.791 28.0395 146.322 29.1392 149.018 29.1392C151.672 29.1392 153.306 28.0395 153.306 26.2888C153.306 24.904 152.509 24.0895 150.161 23.5601L146.67 22.746C142.586 21.8093 140.564 19.8547 140.564 16.7396C140.564 12.9117 143.913 10.2852 148.854 10.2852Z" fill="black"/>
<path d="M172.647 32.1213H168.624V23.3972H160.292V19.4272H168.624V10.7031H172.647V19.4272H181V23.3972H172.647V32.1213Z" fill="black"/>
<path d="M19.3165 8.19156C16.6878 7.99764 14.4576 9.65567 13.2132 9.65567C11.9508 9.65567 10.0044 8.23338 7.94059 8.27227C5.23065 8.31184 2.73305 9.8446 1.33573 12.2639C-1.4789 17.1354 0.617233 24.3539 3.35883 28.307C4.69989 30.2386 6.29939 32.4153 8.40024 32.336C10.4224 32.2566 11.1875 31.0318 13.6319 31.0318C16.0748 31.0318 16.7639 32.336 18.9023 32.297C21.0789 32.2566 22.458 30.3254 23.7892 28.383C25.3297 26.1411 25.9628 23.9702 26.0004 23.8555C25.9522 23.8373 21.7575 22.2326 21.7156 17.4137C21.6777 13.3849 25.0136 11.4483 25.1652 11.3551C23.2717 8.57432 20.3468 8.26772 19.3165 8.19156Z" fill="black"/>
<path d="M17.6942 5.58292C18.8107 4.23744 19.5619 2.36369 19.355 0.5C17.7482 0.56354 15.8047 1.56727 14.6521 2.91187C13.62 4.10296 12.7136 6.01065 12.9597 7.8363C14.7507 7.97432 16.5787 6.9292 17.6942 5.58292Z" fill="black"/>
</g>
<defs>
<clipPath id="clip0_1229_53340">
<rect width="181" height="32" fill="white" transform="translate(0 0.5)"/>
</clipPath>
</defs>
</svg>
